<?xml version="1.0" encoding="UTF-8" standalone="no"?>
<!-- Created with Inkscape (http://www.inkscape.org/) -->

<svg
   xmlns:dc="http://purl.org/dc/elements/1.1/"
   xmlns:cc="http://creativecommons.org/ns#"
   xmlns:rdf="http://www.w3.org/1999/02/22-rdf-syntax-ns#"
   xmlns:svg="http://www.w3.org/2000/svg"
   xmlns="http://www.w3.org/2000/svg"
   xmlns:sodipodi="http://sodipodi.sourceforge.net/DTD/sodipodi-0.dtd"
   xmlns:inkscape="http://www.inkscape.org/namespaces/inkscape"
   width="210mm"
   height="297mm"
   viewBox="0 0 210 297"
   version="1.1"
   id="svg8"
   sodipodi:docname="LOGO.svg"
   inkscape:version="0.92.2 (5c3e80d, 2017-08-06)">
  <defs
     id="defs2">
    <inkscape:perspective
       sodipodi:type="inkscape:persp3d"
       inkscape:vp_x="197.82222 : 485.90343 : 1"
       inkscape:vp_y="0 : 3779.5275 : 0"
       inkscape:vp_z="991.52303 : 485.90343 : 1"
       inkscape:persp3d-origin="594.67262 : 298.81682 : 1"
       id="perspective3737" />
    <inkscape:perspective
       sodipodi:type="inkscape:persp3d"
       inkscape:vp_x="97.590322 : 348.38314 : 1"
       inkscape:vp_y="0 : -1551.8427 : 0"
       inkscape:vp_z="424.5489 : 348.38314 : 1"
       inkscape:persp3d-origin="261.06961 : 425.19936 : 1"
       id="perspective3707" />
  </defs>
  <sodipodi:namedview
     id="base"
     pagecolor="#ffffff"
     bordercolor="#666666"
     borderopacity="1.0"
     inkscape:pageopacity="0.0"
     inkscape:pageshadow="2"
     inkscape:zoom="0.67882997"
     inkscape:cx="396.85039"
     inkscape:cy="561.25984"
     inkscape:document-units="mm"
     inkscape:current-layer="layer1"
     showgrid="false"
     inkscape:measure-start="-962.857,1402.86"
     inkscape:measure-end="-1125.71,962.857"
     inkscape:window-width="1280"
     inkscape:window-height="961"
     inkscape:window-x="-8"
     inkscape:window-y="-8"
     inkscape:window-maximized="1"
     inkscape:snap-global="false" />
  <metadata
     id="metadata5">
    <rdf:RDF>
      <cc:Work
         rdf:about="">
        <dc:format>image/svg+xml</dc:format>
        <dc:type
           rdf:resource="http://purl.org/dc/dcmitype/StillImage" />
        <dc:title></dc:title>
      </cc:Work>
    </rdf:RDF>
  </metadata>
  <g
     inkscape:label="Capa 1"
     inkscape:groupmode="layer"
     id="layer1">
    <path
       sodipodi:type="spiral"
       style="fill:none;fill-rule:evenodd;stroke:#000000;stroke-width:0.26458332"
       id="path3699"
       sodipodi:cx="102.57223"
       sodipodi:cy="128.93973"
       sodipodi:expansion="1"
       sodipodi:revolution="3"
       sodipodi:radius="47.672974"
       sodipodi:argument="-18.593039"
       sodipodi:t0="0"
       d="m 102.57223,128.93973 c 2.31203,0.60644 0.32321,3.41577 -1.00794,3.84276 -3.607338,1.15709 -6.510808,-2.63279 -6.677577,-5.85864 -0.298311,-5.7703 5.348447,-9.76676 10.709337,-9.51239 7.86731,0.37329 13.08687,8.08926 12.34721,15.56003 -0.98586,9.95735 -10.83748,16.43239 -20.41073,15.18202 -12.046952,-1.57345 -19.79065,-13.58885 -18.016846,-25.26142 2.148314,-14.13705 16.34192,-23.156215 30.112116,-20.85166 16.22771,2.71583 26.52636,19.09603 23.68649,34.96281 -3.27875,18.31883 -21.85086,29.89956 -39.813517,26.5213 C 73.09046,159.68596 60.225885,138.91838 64.144655,118.86033 68.540923,96.358243 91.5065,82.208556 113.65956,86.669398 c 24.5941,4.95238 40.02983,30.117802 35.02575,54.365602"
       transform="matrix(0.26399863,0,0,0.25448974,-2.9243951,-9.0639689)" />
    <path
       sodipodi:type="spiral"
       style="fill:none;fill-rule:evenodd;stroke:#000000;stroke-width:0.26458332"
       id="path3703"
       sodipodi:cx="102.57223"
       sodipodi:cy="128.93973"
       sodipodi:expansion="1"
       sodipodi:revolution="3.2285099"
       sodipodi:radius="53.816299"
       sodipodi:argument="-22.530394"
       sodipodi:t0="0"
       d="m 102.57223,128.93973 c -2.15149,1.28746 -2.796944,-2.26498 -2.13985,-3.57592 1.7807,-3.55257 6.7519,-2.94658 9.29169,-0.70377 4.54309,4.01187 3.39321,11.17683 -0.73231,15.00745 -6.05437,5.62159 -15.66771,3.86947 -20.723216,-2.16838 -6.738195,-8.04751 -4.35932,-20.18278 3.60446,-26.43899 10.021606,-7.87279 24.709566,-4.85641 32.154746,5.04054 9.01712,11.98653 5.35773,29.24299 -6.47661,37.87051 -13.94636,10.16725 -33.780553,5.86171 -43.586279,-7.91268 -11.3211,-15.90309 -6.367461,-38.32089 9.348764,-49.30205 17.857775,-12.477492 42.863155,-6.874452 55.017815,10.78484 13.63568,19.81106 7.38234,47.40685 -12.22092,60.73358 -21.76333,14.79519 -51.951597,7.8909 -66.449343,-13.657 -14.397238,-21.39851 -9.843046,-50.79716 9.312015,-67.717386"
       transform="matrix(0.26399863,0,0,0.25448974,-2.9243951,-9.0639689)" />
    <g
       sodipodi:type="inkscape:box3d"
       id="g3709"
       inkscape:perspectiveID="#perspective3737"
       inkscape:corner0="-4.6552011 : -0.10401846 : 0 : 1"
       inkscape:corner7="-5.6299214 : -0.58245675 : 0.25 : 1">
      <path
         sodipodi:type="inkscape:box3dside"
         id="path3711"
         style="fill:#353564;fill-rule:evenodd;stroke:none;stroke-linejoin:round"
         inkscape:box3dsidetype="6"
         d="M 89.250795,-347.64358 V -842.35525 L 23.00858,-890.32979 v 531.03197 z"
         points="89.250795,-842.35525 23.00858,-890.32979 23.00858,-359.29782 89.250795,-347.64358 " />
      <path
         sodipodi:type="inkscape:box3dside"
         id="path3715"
         style="fill:#8686bf;fill-rule:evenodd;stroke:none;stroke-linejoin:round"
         inkscape:box3dsidetype="3"
         d="m 89.250795,-347.64358 22.857145,33.41898 V -704.78644 L 89.250795,-842.35525 Z"
         points="112.10794,-314.2246 112.10794,-704.78644 89.250795,-842.35525 89.250795,-347.64358 " />
      <path
         sodipodi:type="inkscape:box3dside"
         id="path3713"
         style="fill:#4d4d9f;fill-rule:evenodd;stroke:none;stroke-linejoin:round"
         inkscape:box3dsidetype="5"
         d="m 89.250795,-347.64358 22.857145,33.41898 -50.195829,-7.15316 -38.903531,-37.92006 z"
         points="112.10794,-314.2246 61.912111,-321.37776 23.00858,-359.29782 89.250795,-347.64358 " />
      <path
         sodipodi:type="inkscape:box3dside"
         id="path3721"
         style="fill:#e9e9ff;fill-rule:evenodd;stroke:none;stroke-linejoin:round"
         inkscape:box3dsidetype="11"
         d="m 23.00858,-359.29782 38.903531,37.92006 V -734.23235 L 23.00858,-890.32979 Z"
         points="61.912111,-321.37776 61.912111,-734.23235 23.00858,-890.32979 23.00858,-359.29782 " />
      <path
         sodipodi:type="inkscape:box3dside"
         id="path3719"
         style="fill:#afafde;fill-rule:evenodd;stroke:none;stroke-linejoin:round"
         inkscape:box3dsidetype="13"
         d="M 89.250795,-842.35525 112.10794,-704.78644 61.912111,-734.23235 23.00858,-890.32979 Z"
         points="112.10794,-704.78644 61.912111,-734.23235 23.00858,-890.32979 89.250795,-842.35525 " />
      <path
         sodipodi:type="inkscape:box3dside"
         id="path3717"
         style="fill:#d7d7ff;fill-rule:evenodd;stroke:none;stroke-linejoin:round"
         inkscape:box3dsidetype="14"
         d="m 112.10794,-314.2246 v -390.56184 l -50.195829,-29.44591 v 412.85459 z"
         points="112.10794,-704.78644 61.912111,-734.23235 61.912111,-321.37776 112.10794,-314.2246 " />
    </g>
    <g
       sodipodi:type="inkscape:box3d"
       id="g3723"
       inkscape:perspectiveID="#perspective3707"
       inkscape:corner0="-3.8937008 : -0.05284564 : 0 : 1"
       inkscape:corner7="-3.9199476 : -0.12453546 : 0.25 : 1">
      <path
         sodipodi:type="inkscape:box3dside"
         id="path3725"
         style="fill:#353564;fill-rule:evenodd;stroke:none;stroke-width:1.5543921;stroke-linejoin:round"
         inkscape:box3dsidetype="6"
         d="M 41.09544,3.5031028 V 41.949137 L 4.8343898,50.775048 V 8.6933869 Z"
         points="41.09544,41.949137 4.8343898,50.775048 4.8343898,8.6933869 41.09544,3.5031028 " />
      <path
         sodipodi:type="inkscape:box3dside"
         id="path3733"
         style="fill:#afafde;fill-rule:evenodd;stroke:none;stroke-width:1.5543921;stroke-linejoin:round"
         inkscape:box3dsidetype="13"
         d="m 41.09544,41.949137 0.507821,-0.838944 -35.8570382,8.660593 -0.911833,1.004262 z"
         points="41.603261,41.110193 5.7462228,49.770786 4.8343898,50.775048 41.09544,41.949137 " />
      <path
         sodipodi:type="inkscape:box3dside"
         id="path3731"
         style="fill:#d7d7ff;fill-rule:evenodd;stroke:none;stroke-width:1.5543921;stroke-linejoin:round"
         inkscape:box3dsidetype="14"
         d="M 41.603261,3.0097419 V 41.110193 L 5.7462228,49.770786 V 8.1028074 Z"
         points="41.603261,41.110193 5.7462228,49.770786 5.7462228,8.1028074 41.603261,3.0097419 " />
      <path
         sodipodi:type="inkscape:box3dside"
         id="path3735"
         style="fill:#e9e9ff;fill-rule:evenodd;stroke:none;stroke-width:1.5543921;stroke-linejoin:round"
         inkscape:box3dsidetype="11"
         d="M 4.8343898,8.6933869 5.7462228,8.1028074 V 49.770786 l -0.911833,1.004262 z"
         points="5.7462228,8.1028074 5.7462228,49.770786 4.8343898,50.775048 4.8343898,8.6933869 " />
      <path
         sodipodi:type="inkscape:box3dside"
         id="path3727"
         style="fill:#4d4d9f;fill-rule:evenodd;stroke:none;stroke-width:1.5543921;stroke-linejoin:round"
         inkscape:box3dsidetype="5"
         d="M 41.09544,3.5031028 41.603261,3.0097419 5.7462228,8.1028074 4.8343898,8.6933869 Z"
         points="41.603261,3.0097419 5.7462228,8.1028074 4.8343898,8.6933869 41.09544,3.5031028 " />
      <path
         sodipodi:type="inkscape:box3dside"
         id="path3729"
         style="fill:#8686bf;fill-rule:evenodd;stroke:none;stroke-width:1.5543921;stroke-linejoin:round"
         inkscape:box3dsidetype="3"
         d="M 41.09544,3.5031028 41.603261,3.0097419 V 41.110193 l -0.507821,0.838944 z"
         points="41.603261,3.0097419 41.603261,41.110193 41.09544,41.949137 41.09544,3.5031028 " />
    </g>
    <path
       d="m 102.57223,128.93973 c 2.31203,0.60644 0.32321,3.41577 -1.00794,3.84276 -3.607338,1.15709 -6.510808,-2.63279 -6.677577,-5.85864 -0.298311,-5.7703 5.348447,-9.76676 10.709337,-9.51239 7.86731,0.37329 13.08687,8.08926 12.34721,15.56003 -0.98586,9.95735 -10.83748,16.43239 -20.41073,15.18202 -12.046952,-1.57345 -19.79065,-13.58885 -18.016846,-25.26142 2.148314,-14.13705 16.34192,-23.156215 30.112116,-20.85166 16.22771,2.71583 26.52636,19.09603 23.68649,34.96281 -3.27875,18.31883 -21.85086,29.89956 -39.813517,26.5213 C 73.09046,159.68596 60.225885,138.91838 64.144655,118.86033 68.540923,96.358243 91.5065,82.208556 113.65956,86.669398 c 24.5941,4.95238 40.02983,30.117802 35.02575,54.365602"
       sodipodi:t0="0"
       sodipodi:argument="-18.593039"
       sodipodi:radius="47.672974"
       sodipodi:revolution="3"
       sodipodi:expansion="1"
       sodipodi:cy="128.93973"
       sodipodi:cx="102.57223"
       id="path3754"
       style="fill:none;fill-rule:evenodd;stroke:#000000;stroke-width:0.26458332"
       sodipodi:type="spiral"
       transform="matrix(0.26399863,0,0,0.25448974,-2.9243951,-9.0639689)" />
    <path
       d="m 102.57223,128.93973 c -2.15149,1.28746 -2.796944,-2.26498 -2.13985,-3.57592 1.7807,-3.55257 6.7519,-2.94658 9.29169,-0.70377 4.54309,4.01187 3.39321,11.17683 -0.73231,15.00745 -6.05437,5.62159 -15.66771,3.86947 -20.723216,-2.16838 -6.738195,-8.04751 -4.35932,-20.18278 3.60446,-26.43899 10.021606,-7.87279 24.709566,-4.85641 32.154746,5.04054 9.01712,11.98653 5.35773,29.24299 -6.47661,37.87051 -13.94636,10.16725 -33.780553,5.86171 -43.586279,-7.91268 -11.3211,-15.90309 -6.367461,-38.32089 9.348764,-49.30205 17.857775,-12.477492 42.863155,-6.874452 55.017815,10.78484 13.63568,19.81106 7.38234,47.40685 -12.22092,60.73358 -21.76333,14.79519 -51.951597,7.8909 -66.449343,-13.657 -14.397238,-21.39851 -9.843046,-50.79716 9.312015,-67.717386"
       sodipodi:t0="0"
       sodipodi:argument="-22.530394"
       sodipodi:radius="53.816299"
       sodipodi:revolution="3.2285099"
       sodipodi:expansion="1"
       sodipodi:cy="128.93973"
       sodipodi:cx="102.57223"
       id="path3756"
       style="fill:none;fill-rule:evenodd;stroke:#000000;stroke-width:0.26458332"
       sodipodi:type="spiral"
       transform="matrix(0.26399863,0,0,0.25448974,-2.9243951,-9.0639689)" />
    <flowRoot
       xml:space="preserve"
       id="flowRoot3766"
       style="font-style:normal;font-weight:normal;font-size:40px;line-height:1.25;font-family:sans-serif;letter-spacing:0px;word-spacing:0px;fill:#000000;fill-opacity:1;stroke:none"
       transform="matrix(0.26458333,0,0,0.26458333,17.149607,42.094489)"><flowRegion
         id="flowRegion3768"><rect
           id="rect3770"
           width="67.297218"
           height="73.174232"
           x="128.57143"
           y="169.34544" /></flowRegion><flowPara
         id="flowPara3772"></flowPara></flowRoot>    <path
       style="stroke-width:0.19594331"
       d="m 21.01849,31.061255 c -0.9784,-0.307126 -2.472142,-1.119027 -2.835686,-1.541292 -0.206538,-0.2399 -0.183849,-0.389812 0.125425,-0.828713 0.207667,-0.294707 0.483532,-0.773903 0.613032,-1.064882 0.267462,-0.600972 0.482018,-0.659446 0.85026,-0.231723 0.140789,0.16353 0.380967,0.251095 0.533728,0.194586 0.15276,-0.05651 0.223391,-0.01797 0.156957,0.08566 -0.06643,0.103621 0.205511,0.338398 0.604321,0.521727 0.709991,0.326376 0.722362,0.350993 0.593296,1.180667 -0.0725,0.466037 -0.179102,0.96613 -0.236897,1.111316 -0.08555,0.214904 0.35152,0.263977 2.351027,0.263977 1.927451,0 2.403908,0.05032 2.213578,0.233798 -0.360086,0.347116 -3.930393,0.400918 -4.969041,0.07488 z"
       id="path3774"
       inkscape:connector-curvature="0" />
    <path
       style="fill:#ff0000;stroke-width:0.19594331"
       d="m 21.160976,18.716047 c 0,-1.043347 1.505886,-1.722873 3.791836,-1.711052 0.82323,0.0042 1.676392,0.10984 1.89592,0.234627 0.334932,0.190391 0.185873,0.227829 -0.926606,0.232738 -0.99028,0.0044 -1.354818,0.07887 -1.440623,0.294425 -0.06508,0.163491 -0.362438,0.288571 -0.686026,0.288571 -0.314132,0 -1.012952,0.216069 -1.552935,0.48015 -1.163721,0.569131 -1.081566,0.555417 -1.081566,0.180541 z"
       id="path3778"
       inkscape:connector-curvature="0" />
    <path
       style="fill:#550000;stroke-width:0.19594331"
       d="m 5.7940549,29.11733 c 0,-11.268783 0.02499,-20.4886969 0.05552,-20.4886969 0.03053,0 7.9050881,-1.125435 17.4990081,-2.500968 9.593918,-1.375532 17.516824,-2.500967 17.606459,-2.500967 0.08964,0 0.162974,8.4374279 0.162974,18.7498419 v 18.749842 l -0.748391,0.190781 c -1.593277,0.406161 -34.3779881,8.288863 -34.4739661,8.288863 -0.05588,0 -0.101604,-9.219914 -0.101604,-20.488696 z m 20.7553211,6.403951 c 2.422488,-0.559231 5.106119,-2.245485 6.565535,-4.125444 1.172141,-1.5099 1.713845,-2.69117 2.330303,-5.08159 0.683619,-2.650846 0.659539,-2.587516 0.896906,-2.3587 0.129082,0.124433 0.139581,0.682987 0.02953,1.571228 -0.09391,0.757987 -0.104322,1.378158 -0.02313,1.378158 0.359838,0 0.436136,-2.639852 0.127453,-4.409925 -0.942708,-5.405754 -5.370118,-9.397031 -10.83636,-9.768895 -1.848225,-0.125733 -3.950697,0.242596 -5.576269,0.976898 -1.212208,0.547579 -3.191132,1.963713 -3.198401,2.288803 -0.0081,0.363119 -0.301897,0.734919 -0.491461,0.621982 -0.09339,-0.05564 -0.347077,0.116093 -0.563751,0.381625 -0.216672,0.265535 -0.532887,0.48279 -0.702698,0.48279 -0.436553,0 -0.484462,0.11778 -0.951614,2.339471 -0.524766,2.495697 -0.449324,5.10045 0.194128,6.702488 0.23374,0.581957 0.425026,1.109135 0.425081,1.171508 2.1e-4,0.254414 -1.07629,0.559931 -1.972959,0.559931 -0.840834,0 -0.985536,-0.06158 -1.197268,-0.509547 -0.81494,-1.724173 -1.061255,-5.313799 -0.517263,-7.538225 0.574669,-2.349862 1.750746,-4.481048 3.425005,-6.206495 0.503754,-0.519156 0.821004,-0.94392 0.704999,-0.94392 -0.116004,0 -0.673057,0.497789 -1.237896,1.106197 -1.186503,1.278027 -2.651095,4.008147 -3.118586,5.813299 -0.55219,2.132204 -0.346802,5.811632 0.433133,7.759412 0.117839,0.29429 0.06172,0.327811 -0.372782,0.222687 -0.462175,-0.111821 -0.5308,-0.05246 -0.711554,0.61547 -0.110026,0.406573 -0.2580381,1.051582 -0.3289151,1.433353 -0.123019,0.662632 -0.0998,0.699729 0.5116881,0.817624 0.352305,0.06792 1.107611,0.123494 1.678457,0.123494 0.848621,0 1.123248,0.08758 1.50588,0.480199 0.257388,0.264107 0.511747,0.438002 0.565245,0.386433 0.149356,-0.143978 0.642092,0.310093 0.528597,0.487116 -0.05496,0.08572 0.282805,0.455022 0.750587,0.820671 3.029479,2.368022 7.290901,3.287788 11.128385,2.401904 z"
       id="path3780"
       inkscape:connector-curvature="0" />
    <flowRoot
       xml:space="preserve"
       id="flowRoot3790"
       style="font-style:normal;font-weight:normal;font-size:40px;line-height:1.25;font-family:sans-serif;letter-spacing:0px;word-spacing:0px;fill:#000000;fill-opacity:1;stroke:none"
       transform="matrix(0.26458333,0,0,0.26458333,17.149607,42.094489)"><flowRegion
         id="flowRegion3792"><rect
           id="rect3794"
           width="1.5829328"
           height="173.17424"
           x="194.28572"
           y="169.34544" /></flowRegion><flowPara
         id="flowPara3796"></flowPara></flowRoot>    <path
       style="fill:#d40000;fill-opacity:1;fill-rule:evenodd;stroke-width:0.101027"
       d="m 33.027229,18.188898 c -0.688517,-0.280512 -1.603914,-0.43675 -3.135712,-0.535195 -1.232368,-0.0792 -1.667581,-0.147914 -2.174115,-0.343261 -1.936984,-0.747004 -4.156289,-0.721165 -5.870367,0.06835 -0.477654,0.22001 -0.586267,0.22854 -2.582293,0.202818 -1.354985,-0.01746 -2.083667,-0.0629 -2.083667,-0.129926 0,-0.175901 1.033619,-1.166973 1.742646,-1.670913 3.422167,-2.432302 8.104195,-2.450893 11.855159,-0.04707 0.975087,0.624888 2.813864,2.404554 2.648562,2.563419 -0.02204,0.02118 -0.202136,-0.02751 -0.400213,-0.108214 z"
       id="path6370"
       inkscape:connector-curvature="0" />
    <path
       style="fill:#d40000;fill-opacity:1;fill-rule:evenodd;stroke-width:1.47312295"
       d=""
       id="path6372"
       inkscape:connector-curvature="0"
       transform="scale(0.26458333)" />
    <path
       style="fill:#d40000;fill-opacity:1;fill-rule:evenodd;stroke-width:0.101027"
       d="m 34.90368,19.44824 c -0.241303,-0.270109 -0.568229,-0.564847 -0.726504,-0.654974 -0.158274,-0.09013 -0.412353,-0.353698 -0.564622,-0.585714 -1.170605,-1.783682 -3.675866,-3.459992 -6.122894,-4.096924 -0.882076,-0.229595 -1.191192,-0.259651 -2.694199,-0.261962 -1.455221,-0.0022 -1.822761,0.02999 -2.572376,0.225574 -1.828893,0.477176 -3.301067,1.318602 -4.61451,2.637435 -0.837612,0.841052 -0.847433,0.847188 -1.355891,0.847188 -0.281693,0 -0.512169,-0.03447 -0.512169,-0.07659 0,-0.142082 0.620623,-0.80375 0.807531,-0.860935 0.101935,-0.03119 0.25134,-0.201249 0.33201,-0.377914 0.198807,-0.43538 1.606608,-1.504233 2.739961,-2.080278 1.900501,-0.965958 3.615673,-1.329636 5.833492,-1.236909 3.949468,0.165128 7.397962,2.270481 9.456496,5.773322 0.764196,1.300371 0.761595,1.608271 -0.0063,0.748682 z"
       id="path6374"
       inkscape:connector-curvature="0" />
    <path
       style="fill:#d40000;fill-opacity:1;fill-rule:evenodd;stroke-width:0.101027"
       d="m 22.182778,35.605408 c -2.436949,-0.272583 -4.79771,-1.213161 -6.6921,-2.666278 -0.369497,-0.283428 -0.730687,-0.631826 -0.802646,-0.774219 -0.07196,-0.142393 -0.266018,-0.330657 -0.431244,-0.418365 -0.301027,-0.159794 -0.753904,-0.657509 -0.670221,-0.736577 0.02451,-0.02315 0.438603,-0.107453 0.920214,-0.187329 0.481611,-0.07988 1.186853,-0.265244 1.567205,-0.411927 l 0.691548,-0.266698 0.6122,0.477202 c 1.263302,0.984726 2.780235,1.693425 4.219541,1.971335 1.165242,0.224992 3.228287,0.153427 4.330054,-0.150206 0.989696,-0.272747 2.23722,-0.868096 3.086913,-1.473153 0.389623,-0.277446 0.926562,-0.551629 1.286214,-0.656794 1.708954,-0.499714 3.311074,-1.658025 4.349743,-3.144807 0.376782,-0.539336 0.57826,-0.628858 0.473509,-0.210393 -0.129366,0.516806 -0.679801,1.960092 -0.93627,2.454974 -2.191742,4.229192 -7.068883,6.745322 -12.00466,6.193235 z"
       id="path6376"
       inkscape:connector-curvature="0" />
    <path
       style="fill:#d40000;fill-opacity:1;fill-rule:evenodd;stroke-width:0.101027"
       d="m 22.152548,32.542818 c -0.678862,-0.104445 -1.854639,-0.447965 -2.554541,-0.746346 -0.666593,-0.284181 -1.954173,-1.117344 -2.347983,-1.519325 l -0.291192,-0.297234 0.360075,-0.26475 0.360074,-0.26475 0.651397,0.462738 c 2.527444,1.795438 5.486845,2.178136 8.359837,1.081059 0.600731,-0.229395 2.426924,-0.48057 2.426924,-0.3338 0,0.116427 -1.254183,0.860806 -1.996883,1.185185 -0.390869,0.170714 -1.062272,0.397413 -1.492008,0.503775 -0.879369,0.217648 -2.670464,0.317336 -3.4757,0.193448 z"
       id="path6378"
       inkscape:connector-curvature="0" />
    <path
       style="fill:#d40000;fill-opacity:1;fill-rule:evenodd;stroke-width:0.101027"
       d="m 26.030226,28.202718 c 0,-0.0528 0.213063,-0.243491 0.473475,-0.423768 0.677002,-0.468675 1.33821,-1.381672 1.598198,-2.206794 0.385326,-1.222909 0.128928,-2.582518 -0.679757,-3.60457 -0.263788,-0.333387 -0.266088,-0.279517 0.06701,-1.569053 l 0.0992,-0.384033 0.864358,0.04373 c 0.656632,0.03322 0.915715,0.08854 1.078053,0.230158 0.356744,0.311221 0.892634,1.24466 1.195385,2.082182 0.256012,0.708224 0.285951,0.924532 0.281315,2.032461 -0.0045,1.073353 -0.04283,1.350624 -0.28542,2.064365 -0.260468,0.766331 -0.314246,0.845277 -0.7625,1.11937 -0.265248,0.162191 -0.713787,0.364282 -0.996754,0.449093 -0.600804,0.180071 -2.932567,0.312743 -2.932567,0.166856 z"
       id="path6380"
       inkscape:connector-curvature="0" />
    <path
       style="fill:#d40000;fill-opacity:1;fill-rule:evenodd;stroke-width:0.101027"
       d="m 25.660095,27.899513 c 0.03043,-0.09547 0.120752,-0.4414 0.200718,-0.76873 0.07997,-0.32733 0.312224,-0.859317 0.51613,-1.182194 0.440799,-0.697987 0.521741,-1.046927 0.447002,-1.927008 -0.05536,-0.65191 0.181202,-1.999128 0.351036,-1.999128 0.0418,0 0.172998,0.131318 0.291554,0.291819 0.770539,1.043146 0.873207,2.611329 0.248735,3.799278 -0.305877,0.581879 -1.059007,1.390913 -1.605826,1.725027 -0.458823,0.280347 -0.522012,0.288916 -0.449349,0.06094 z"
       id="path6382"
       inkscape:connector-curvature="0" />
    <path
       style="fill:#d40000;fill-opacity:1;fill-rule:evenodd;stroke-width:0.101027"
       d="m 30.86639,26.640984 c 0,-0.02389 0.07247,-0.344692 0.161056,-0.712888 0.206394,-0.857896 0.203145,-2.392218 -0.0067,-3.161712 -0.1943,-0.712512 -0.686314,-1.757931 -1.034385,-2.197839 -0.138515,-0.17506 -0.251844,-0.347135 -0.251844,-0.382386 0,-0.109148 0.644966,0.06371 1.146337,0.30723 0.430709,0.209198 0.508073,0.302782 0.789397,0.954889 0.171539,0.397629 0.38768,1.084148 0.480313,1.525598 0.153385,0.730969 0.154218,0.861685 0.0093,1.463951 -0.216814,0.90121 -0.934011,2.246597 -1.197613,2.246597 -0.05274,0 -0.09589,-0.01955 -0.09589,-0.04344 z"
       id="path6384"
       inkscape:connector-curvature="0" />
    <path
       style="fill:#d40000;fill-opacity:1;fill-rule:evenodd;stroke-width:0.101027"
       d="m 21.759996,26.864985 c -0.692863,-0.349193 -1.197043,-0.789485 -1.610951,-1.406816 -0.217549,-0.324465 -0.39471,-0.705765 -0.393691,-0.847334 0.001,-0.141568 0.25317,-1.30634 0.560338,-2.588382 0.54655,-2.281158 0.566338,-2.337598 0.925682,-2.640286 0.536542,-0.451948 1.472821,-0.904284 2.226001,-1.075426 0.888503,-0.201891 0.949412,-0.197045 0.885399,0.07045 -0.02937,0.122748 -0.177825,0.747625 -0.329892,1.388613 -0.268602,1.132214 -0.28654,1.170035 -0.629283,1.326819 -0.194039,0.08876 -0.534301,0.360154 -0.756135,0.603094 -0.740268,0.810698 -0.781308,1.900854 -0.09973,2.649168 l 0.306042,0.336009 -0.279306,1.200148 c -0.153618,0.660081 -0.304861,1.198176 -0.336095,1.195765 -0.03124,-0.0024 -0.242005,-0.09773 -0.468379,-0.211819 z"
       id="path6386"
       inkscape:connector-curvature="0" />
    <path
       style="fill:#d40000;fill-opacity:1;fill-rule:evenodd;stroke-width:0.101027"
       d="m 22.660081,24.279045 c -0.720848,-0.870814 -0.510997,-2.097329 0.48433,-2.830757 0.243466,-0.179402 0.464116,-0.305509 0.490333,-0.280236 0.02622,0.02527 -0.11863,0.736058 -0.321882,1.579523 -0.203252,0.843465 -0.369549,1.560997 -0.369549,1.594516 0,0.105467 -0.176207,0.06625 -0.283232,-0.06305 z"
       id="path6390"
       inkscape:connector-curvature="0" />
    <path
       style="fill:#d40000;fill-opacity:1;fill-rule:evenodd;stroke-width:0.101027"
       d="m 21.202689,28.061593 c -0.352895,-0.169991 -0.666117,-0.370597 -0.696049,-0.445789 -0.02993,-0.07519 -0.09,-0.115514 -0.133492,-0.0896 -0.14603,0.087 -1.151368,-1.029161 -1.093991,-1.214587 0.0294,-0.09501 0.107346,-0.384758 0.173217,-0.643894 0.06587,-0.259136 0.158348,-0.471157 0.205504,-0.471157 0.04716,0 0.226246,0.196865 0.397978,0.437479 0.394588,0.552857 1.038805,1.086872 1.644916,1.363533 0.258947,0.118197 0.482388,0.22256 0.496535,0.231916 0.05749,0.03803 -0.213889,1.14118 -0.280736,1.14118 -0.03974,0 -0.360988,-0.139084 -0.713882,-0.309076 z"
       id="path6392"
       inkscape:connector-curvature="0" />
    <path
       style="fill:#d40000;fill-opacity:1;fill-rule:evenodd;stroke-width:0.101027"
       d="m 15.487859,25.766908 c -0.20127,-0.617648 -0.269983,-0.93746 -0.367041,-1.708311 -0.127643,-1.013752 -0.06894,-1.807803 0.225673,-3.052851 l 0.205377,-0.86792 h 0.821537 c 0.734275,0 0.815834,0.01844 0.767843,0.173584 -0.02953,0.09547 -0.333934,1.350019 -0.676448,2.787883 -0.342515,1.437864 -0.648332,2.654192 -0.679592,2.702951 -0.08246,0.128614 -0.250428,0.108653 -0.297349,-0.03534 z"
       id="path6394"
       inkscape:connector-curvature="0" />
    <path
       style="fill:#d40000;fill-opacity:1;fill-rule:evenodd;stroke-width:0.101027"
       d="m 14.62691,26.610031 c -0.527637,-1.328186 -0.686929,-2.203646 -0.672286,-3.69486 0.0094,-0.958174 0.06771,-1.536582 0.204965,-2.033413 l 0.191815,-0.694336 0.523197,-0.02941 0.523196,-0.02941 -0.20645,0.723749 c -0.16309,0.571742 -0.208141,1.046656 -0.214505,2.261207 -0.0074,1.408955 0.01627,1.617351 0.28296,2.493314 l 0.291016,0.955855 -0.215934,0.40802 c -0.118763,0.22441 -0.25793,0.408019 -0.30926,0.408019 -0.05133,0 -0.230751,-0.345928 -0.398714,-0.768729 z"
       id="path6396"
       inkscape:connector-curvature="0" />
  </g>
</svg>
